# xmcd
#
# Track frame offsets: 
#        150
#        21341
#        43175
#        68071
#        90939
#        115097
#        140955
#        162024
#        183061
#        212935
#        231643
#        240690
#        261601
#        277057
#        303056
#
# Disc length: 4336 seconds
#
# Revision: 0
# Processed by: cddbd v1.5.2PL0 Copyright (c) Steve Scherf et al.
# Submitted via: ExactAudioCopy v1.0b3
#
DISCID=dc10ee0f
DTITLE=Leadfoot Rivet - Greyboy Blues
DYEAR=2007
DGENRE=Blues
TTITLE0=I Was All Wrong
TTITLE1=Down The Drain (with Joanna Connor)
TTITLE2=Shevedaddy Song
TTITLE3=Between a Woman And a Man (with Joanna Connor)
TTITLE4=She Healed Me
TTITLE5=Road To Cairo (with Fred Chappelier)
TTITLE6=Gravity And Gravy
TTITLE7=Sweet Misery
TTITLE8=Why People Act Like That (with Tom Principato)
TTITLE9=Leadfootin' (with Neal Black)
TTITLE10=Money For Cigarettes
TTITLE11=Le Tengo Rabia Al Silencio (with Fred Chappelier)
TTITLE12=Feed The Cat
TTITLE13=Angry Old Man
TTITLE14=Road Kill
EXTD=
EXTT0=
EXTT1=
EXTT2=
EXTT3=
EXTT4=
EXTT5=
EXTT6=
EXTT7=
EXTT8=
EXTT9=
EXTT10=
EXTT11=
EXTT12=
EXTT13=
EXTT14=
PLAYORDER=
